<mxfile host="app.diagrams.net" agent="Mozilla/5.0 (Windows NT 10.0; Win64; x64) AppleWebKit/537.36 (KHTML, like Gecko) Chrome/130.0.0.0 Safari/537.36" version="24.8.3">
  <diagram name="Page-1" id="POjWEP2f18WCFqWoDT05">
    <mxGraphModel dx="1224" dy="483" grid="0" gridSize="10" guides="1" tooltips="1" connect="1" arrows="1" fold="1" page="1" pageScale="1" pageWidth="850" pageHeight="1100" math="0" shadow="0">
      <root>
        <mxCell id="0" />
        <mxCell id="1" parent="0" />
        <mxCell id="nqFmswFfyf5B56kGS30E-1" value="Patient" style="shape=umlActor;verticalLabelPosition=bottom;verticalAlign=top;html=1;outlineConnect=0;" parent="1" vertex="1">
          <mxGeometry x="103" y="418" width="30" height="60" as="geometry" />
        </mxCell>
        <mxCell id="nqFmswFfyf5B56kGS30E-14" value="Call Nurse Hotline" style="ellipse;whiteSpace=wrap;html=1;" parent="1" vertex="1">
          <mxGeometry x="292" y="416" width="120" height="60" as="geometry" />
        </mxCell>
        <mxCell id="nqFmswFfyf5B56kGS30E-15" value="" style="endArrow=none;html=1;rounded=0;" parent="1" source="nqFmswFfyf5B56kGS30E-1" target="nqFmswFfyf5B56kGS30E-14" edge="1">
          <mxGeometry width="50" height="50" relative="1" as="geometry">
            <mxPoint x="119" y="365" as="sourcePoint" />
            <mxPoint x="284" y="400" as="targetPoint" />
          </mxGeometry>
        </mxCell>
        <mxCell id="nqFmswFfyf5B56kGS30E-16" value="Nurse" style="shape=umlActor;verticalLabelPosition=bottom;verticalAlign=top;html=1;" parent="1" vertex="1">
          <mxGeometry x="699" y="342" width="30" height="60" as="geometry" />
        </mxCell>
        <mxCell id="nqFmswFfyf5B56kGS30E-17" value="" style="endArrow=none;html=1;rounded=0;" parent="1" source="nqFmswFfyf5B56kGS30E-14" target="nqFmswFfyf5B56kGS30E-16" edge="1">
          <mxGeometry width="50" height="50" relative="1" as="geometry">
            <mxPoint x="119" y="370" as="sourcePoint" />
            <mxPoint x="299" y="470" as="targetPoint" />
          </mxGeometry>
        </mxCell>
        <mxCell id="nqFmswFfyf5B56kGS30E-18" value="Register for Virtual Triage" style="ellipse;whiteSpace=wrap;html=1;" parent="1" vertex="1">
          <mxGeometry x="272" y="493" width="120" height="60" as="geometry" />
        </mxCell>
        <mxCell id="nqFmswFfyf5B56kGS30E-19" value="" style="endArrow=none;html=1;rounded=0;" parent="1" source="nqFmswFfyf5B56kGS30E-1" target="nqFmswFfyf5B56kGS30E-18" edge="1">
          <mxGeometry width="50" height="50" relative="1" as="geometry">
            <mxPoint x="119" y="370" as="sourcePoint" />
            <mxPoint x="299" y="470" as="targetPoint" />
          </mxGeometry>
        </mxCell>
        <mxCell id="nqFmswFfyf5B56kGS30E-20" value="Enter Condition Severity 1-10" style="ellipse;whiteSpace=wrap;html=1;" parent="1" vertex="1">
          <mxGeometry x="469" y="452" width="120" height="60" as="geometry" />
        </mxCell>
        <mxCell id="nqFmswFfyf5B56kGS30E-21" value="Includes" style="endArrow=classic;endSize=16;endFill=1;html=1;rounded=0;" parent="1" source="nqFmswFfyf5B56kGS30E-18" target="nqFmswFfyf5B56kGS30E-20" edge="1">
          <mxGeometry width="160" relative="1" as="geometry">
            <mxPoint x="299" y="452" as="sourcePoint" />
            <mxPoint x="459" y="572" as="targetPoint" />
          </mxGeometry>
        </mxCell>
        <mxCell id="nqFmswFfyf5B56kGS30E-22" value="View Waitlist" style="ellipse;whiteSpace=wrap;html=1;" parent="1" vertex="1">
          <mxGeometry x="259" y="592" width="120" height="60" as="geometry" />
        </mxCell>
        <mxCell id="nqFmswFfyf5B56kGS30E-23" value="" style="endArrow=none;html=1;rounded=0;" parent="1" source="nqFmswFfyf5B56kGS30E-1" target="nqFmswFfyf5B56kGS30E-22" edge="1">
          <mxGeometry width="50" height="50" relative="1" as="geometry">
            <mxPoint x="119" y="375" as="sourcePoint" />
            <mxPoint x="310" y="546" as="targetPoint" />
          </mxGeometry>
        </mxCell>
        <mxCell id="nqFmswFfyf5B56kGS30E-26" value="Mister ED" style="shape=umlFrame;whiteSpace=wrap;html=1;pointerEvents=0;" parent="1" vertex="1">
          <mxGeometry x="149" y="300" width="530" height="365" as="geometry" />
        </mxCell>
        <mxCell id="nqFmswFfyf5B56kGS30E-31" value="View Nearby Hospitals" style="ellipse;whiteSpace=wrap;html=1;" parent="1" vertex="1">
          <mxGeometry x="255" y="322" width="120" height="60" as="geometry" />
        </mxCell>
        <mxCell id="nqFmswFfyf5B56kGS30E-32" value="" style="endArrow=none;html=1;rounded=0;" parent="1" source="nqFmswFfyf5B56kGS30E-1" target="nqFmswFfyf5B56kGS30E-31" edge="1">
          <mxGeometry width="50" height="50" relative="1" as="geometry">
            <mxPoint x="379" y="622" as="sourcePoint" />
            <mxPoint x="429" y="572" as="targetPoint" />
          </mxGeometry>
        </mxCell>
        <mxCell id="nqFmswFfyf5B56kGS30E-33" value="View Hospital Waitimes" style="ellipse;whiteSpace=wrap;html=1;" parent="1" vertex="1">
          <mxGeometry x="495" y="314" width="120" height="60" as="geometry" />
        </mxCell>
        <mxCell id="nqFmswFfyf5B56kGS30E-34" value="Extends" style="endArrow=block;endSize=16;endFill=0;html=1;rounded=0;" parent="1" source="nqFmswFfyf5B56kGS30E-33" target="nqFmswFfyf5B56kGS30E-31" edge="1">
          <mxGeometry width="160" relative="1" as="geometry">
            <mxPoint x="501" y="210" as="sourcePoint" />
            <mxPoint x="387" y="254" as="targetPoint" />
          </mxGeometry>
        </mxCell>
        <mxCell id="nqFmswFfyf5B56kGS30E-35" value="Leave Waitlist" style="ellipse;whiteSpace=wrap;html=1;" parent="1" vertex="1">
          <mxGeometry x="459" y="582" width="120" height="60" as="geometry" />
        </mxCell>
        <mxCell id="nqFmswFfyf5B56kGS30E-36" value="Extends" style="endArrow=classic;endSize=16;endFill=1;html=1;rounded=0;" parent="1" source="nqFmswFfyf5B56kGS30E-35" target="nqFmswFfyf5B56kGS30E-22" edge="1">
          <mxGeometry width="160" relative="1" as="geometry">
            <mxPoint x="499" y="265" as="sourcePoint" />
            <mxPoint x="399" y="269" as="targetPoint" />
          </mxGeometry>
        </mxCell>
      </root>
    </mxGraphModel>
  </diagram>
</mxfile>
